<svg version="1.1" id="Layer_1" xmlns="http://www.w3.org/2000/svg" xmlns:xlink="http://www.w3.org/1999/xlink" x="0px" y="0px"
	    xml:space="preserve" width="16" height="20">
<g id="Icons-(White)/create">
                    <path d="M10,0 L2,0 C0.9,0 0.01,0.9 0.01,2 L0,18 C0,19.1 0.89,20 1.99,20 L14,20 C15.1,20 16,19.1 16,18 L16,6 L10,0 L10,0 Z M12,14 L9,14 L9,17 L7,17 L7,14 L4,14 L4,12 L7,12 L7,9 L9,9 L9,12 L12,12 L12,14 L12,14 Z M9,7 L9,1.5 L14.5,7 L9,7 L9,7 Z" id="Shape" fill="#FFFFFF"></path>
                </g>
</svg>