<svg version="1.1" id="Layer_1" xmlns="http://www.w3.org/2000/svg" xmlns:xlink="http://www.w3.org/1999/xlink" x="0px" y="0px"
	    xml:space="preserve" width="20" height="22">
<g id="create_candidate" transform="translate(4.000000, 2.000000)" fill="#FFFFFF">
                <g id="Icons-(White)/create_candidate">
                    <path d="M10,0 L2,0 C0.9,0 0.01,0.9 0.01,2 L0,18 C0,19.1 0.89,20 1.99,20 L14,20 C15.1,20 16,19.1 16,18 L16,6 L10,0 L10,0 Z M9,7 L9,1.5 L14.5,7 L9,7 L9,7 Z M8,14 C6.6690909,14 4,14.736 4,16.2 L4,18 L12,18 L12,16.2 C12,14.736 9.3309091,14 8,14 L8,14 Z M8.004008,13 C9.1102204,13 10,12.104 10,11 C10,9.896 9.1102204,9 8.004008,9 C6.8977956,9 6,9.896 6,11 C6,12.104 6.8977956,13 8.004008,13 L8.004008,13 Z" id="Shape" fill="#FFFFFF"></path>
                </g>
            </g>
</svg>