<svg version="1.1" id="Layer_1" xmlns="http://www.w3.org/2000/svg" xmlns:xlink="http://www.w3.org/1999/xlink" x="0px" y="0px"
	    xml:space="preserve" width="22" height="22">
<g fill="#ffffff">
        <path style=" stroke:none;fill-rule:nonzero;fill-opacity:1;" d="M 12.074219 16.265625 C 12.074219 16.855469 11.59375 17.335938 11 17.335938 C 10.40625 17.335938 9.925781 16.855469 9.925781 16.265625 C 9.925781 15.671875 10.40625 15.1875 11 15.1875 C 11.59375 15.1875 12.074219 15.671875 12.074219 16.265625 Z M 12.074219 16.265625 "></path>
        <path style=" stroke:none;fill-rule:nonzero;fill-opacity:1;" d="M 11 0 C 4.921875 0 0 4.917969 0 11 C 0 17.078125 4.917969 22 11 22 C 17.078125 22 22 17.082031 22 11 C 22 4.921875 17.082031 0 11 0 Z M 11 20.28125 C 5.871094 20.28125 1.71875 16.128906 1.71875 11 C 1.71875 5.871094 5.871094 1.71875 11 1.71875 C 16.128906 1.71875 20.28125 5.871094 20.28125 11 C 20.28125 16.128906 16.128906 20.28125 11 20.28125 Z M 11 20.28125 "></path>
        <path style=" stroke:none;fill-rule:nonzero;fill-opacity:1;" d="M 11 5.523438 C 9.105469 5.523438 7.5625 7.0625 7.5625 8.960938 C 7.5625 9.433594 7.945312 9.820312 8.421875 9.820312 C 8.898438 9.820312 9.28125 9.433594 9.28125 8.960938 C 9.28125 8.011719 10.050781 7.242188 11 7.242188 C 11.949219 7.242188 12.71875 8.011719 12.71875 8.960938 C 12.71875 9.90625 11.949219 10.679688 11 10.679688 C 10.523438 10.679688 10.140625 11.0625 10.140625 11.539062 L 10.140625 13.6875 C 10.140625 14.160156 10.523438 14.546875 11 14.546875 C 11.476562 14.546875 11.859375 14.160156 11.859375 13.6875 L 11.859375 12.289062 C 13.339844 11.90625 14.4375 10.558594 14.4375 8.960938 C 14.4375 7.0625 12.894531 5.523438 11 5.523438 Z M 11 5.523438 "></path>
    </g>
</svg>