<?xml version="1.0" encoding="utf-8"?>
<!DOCTYPE svg PUBLIC "-//W3C//DTD SVG 20010904//EN" "http://www.w3.org/TR/2001/REC-SVG-20010904/DTD/svg10.dtd">
<svg version="1.0" xmlns="http://www.w3.org/2000/svg" width="300px" height="300px" viewBox="0 0 300 300" preserveAspectRatio="xMidYMid meet">
 <g fill="#e52d2e">
  <path d="M264 177.3 c-0.8 -0.2 -2.2 -0.7 -3 -1.1 -0.8 -0.3 -7 -0.6 -13.7 -0.7 -6.7 0 -12.4 -0.3 -12.7 -0.6 -0.8 -0.8 2.9 -58.6 4.2 -65.4 l0.7 -4 12 -0.3 c6.6 -0.2 18.4 0 26.3 0.3 l14.2 0.7 0 5.3 c0 2.8 -0.5 6.7 -1.1 8.5 l-1.2 3.3 -9.3 -0.6 c-5.9 -0.4 -9.4 -0.3 -9.4 0.3 0 0.6 -1.1 1 -2.5 1 -2.2 0 -2.5 0.4 -2.5 4 0 3.8 0.1 4 3.3 4 1.7 0 5.6 0.3 8.5 0.6 l5.2 0.7 0 5.8 c0 3.3 -0.4 5.9 -0.9 5.9 -0.5 0 -1.2 1.4 -1.6 3.1 l-0.7 3.1 -7.5 -0.7 -7.4 -0.7 0.3 4.4 0.3 4.3 8.8 0.3 c4.8 0.1 8.7 0.7 8.7 1.1 0 0.5 1.4 1.1 3 1.5 3 0.5 3 0.6 3 7 0 10 0.5 9.6 -12.4 9.5 -6.1 0 -11.8 -0.3 -12.6 -0.6z"/>
  <path d="M100.9 172.3 c-5.1 -3.3 -9 -7 -11.6 -11 -1 -1.5 -1.2 -1.1 -1.2 2.8 l-0.1 4.6 -10.2 0.8 c-7.1 0.5 -10.3 0.4 -10.6 -0.4 -0.2 -0.6 -1.8 -1.1 -3.7 -1.1 -2.7 0 -3.5 -0.5 -4.6 -3.2 -2.7 -6.6 -6.8 -8.2 -18.5 -7.1 -5.4 0.5 -6.4 0.9 -6.4 2.5 0 1 -0.6 3.6 -1.2 5.8 l-1.3 4 -12.7 0 -12.8 0 0 -3.4 c0 -1.9 0.4 -3.7 1 -4.1 0.5 -0.3 0.7 -1.1 0.4 -1.8 -0.4 -1.1 15.1 -60.5 16 -61.4 0.1 -0.1 9.1 -0.6 19.9 -0.9 l19.6 -0.7 1.7 3.6 c1 2.1 2.1 3.7 2.5 3.7 0.8 0 0.9 0.3 9.1 23 l6.3 17.5 0.6 -6 c1 -10 5.7 -21.1 11.3 -26.7 5.5 -5.5 10 -7.5 19.9 -8.9 7.5 -1.1 9.4 -1.1 15.9 0.5 4 0.9 8.8 2 10.6 2.3 3 0.5 3.2 0.8 3.2 4.7 0 2.7 -1.1 6.5 -2.9 10.2 -1.6 3.2 -3.2 6.9 -3.5 8.1 -0.8 2.5 -3.7 3.4 -13.5 3.8 -5.9 0.3 -7.8 0.8 -9.7 2.6 -3.1 2.9 -3 4.7 0.1 5.5 1.4 0.3 2.5 1 2.5 1.6 0 0.6 3.6 0.7 9.3 0.2 l9.2 -0.6 2.7 5.8 c3.4 7.3 4.6 17.9 2.7 22.3 -1.9 4.3 -5.3 5.1 -21.1 5 l-13.6 -0.1 -5.3 -3.5z m-52.4 -33.5 c-1.6 -5.4 -3 -9.4 -3.5 -10 -0.3 -0.5 -1.3 2.1 -2.1 5.7 l-1.5 6.5 3.9 0 c3.5 0 3.8 -0.2 3.2 -2.2z"/>
  <path d="M196.6 167.5 c-1 -0.8 -2.3 -1.6 -2.8 -1.7 -0.5 -0.2 -0.4 -2.7 0.2 -5.8 0.6 -3 1.2 -9.6 1.5 -14.6 0.4 -8.6 0.3 -9.2 -1.5 -8.7 -1.1 0.3 -2.5 1.1 -3.1 1.9 -0.6 0.8 -2.8 1.4 -4.8 1.4 -3.2 0 -3.9 -0.5 -6.6 -4.8 l-3 -4.7 -0.7 7 c-1.2 12.4 -2.6 23.6 -3 24.1 -1.4 1.3 -12.2 2.4 -18.3 1.8 -10.2 -1 -10.9 -2 -10.1 -15.4 0.4 -5.8 1.6 -16.6 2.7 -24 1 -7.4 2.4 -17.5 3 -22.5 0.6 -4.9 1.4 -9.3 1.8 -9.7 0.8 -1 17.2 0.8 23 2.5 2.4 0.6 5.1 2.1 6 3.3 0.9 1.1 2.4 2.3 3.4 2.7 0.9 0.3 1.7 1.3 1.7 2.2 0 0.8 0.4 1.5 0.9 1.5 0.5 0 1.4 1.2 1.9 2.8 l1 2.7 6.1 -6.4 6.1 -6.4 10.7 1.2 c16.3 1.8 15.3 1.3 15.3 8.5 0 3.3 -0.4 7.5 -0.9 9.3 -0.6 2 -0.5 3.5 0.2 4.2 0.7 0.7 0.7 3.7 -0.1 10.3 -0.6 5.1 -1.4 11.9 -1.8 15.1 -0.3 3.1 -0.9 5.7 -1.3 5.7 -0.3 0 -0.6 3.4 -0.6 7.5 0 10 -0.7 10.4 -14.5 10.4 -7.6 0 -11 -0.4 -12.4 -1.4z"/>
 </g>
 <g fill="#2d2424">
  <path d="M40.7 208.5 c-3.6 -4.5 -4.9 -8.2 -4.2 -11.6 0.8 -3.7 6.8 -8.9 10.3 -8.9 3.4 0 8.7 3.2 10.3 6.2 0.6 1.3 1.7 2.6 2.4 3 2 1.2 0.3 6.3 -3 9.1 -3 2.4 -9.7 5.7 -11.9 5.7 -0.6 0 -2.3 -1.6 -3.9 -3.5z"/>
  <path d="M124.4 209.6 c-4.3 -1.9 -6.4 -5.3 -6.4 -10.1 0 -4.9 2.2 -8.3 6.6 -10.1 4.1 -1.7 10.4 -1.8 10.4 -0.2 0 0.6 1 2.2 2.3 3.6 1.6 1.7 2.2 3.6 2.2 6.8 0 3.8 -0.5 4.9 -3.7 7.9 -4 3.8 -6.5 4.2 -11.4 2.1z"/>
  <path d="M245.3 209 c-4 -2.4 -5.3 -4.8 -5.3 -9.7 0 -4.7 2.2 -8.1 6.6 -9.9 4.6 -1.9 8.8 -0.8 12.5 3.4 2.7 3.1 3 4.1 2.6 7.6 -0.4 3 -1.5 5 -4.1 7.3 -4.1 3.8 -7.6 4.2 -12.3 1.3z"/>
  <path d="M14.9 206.9 c-5.6 -6 -2.9 -15.8 4.9 -17.8 3.3 -0.9 10.5 -0.2 11.8 1.2 0.3 0.2 -0.3 2.1 -1.2 4.1 -1.5 3.1 -2.2 3.6 -5.2 3.6 -2.3 0 -3.2 0.4 -2.9 1.3 0.2 0.6 1.8 1.1 3.5 1.1 2.6 -0.2 3.2 0.4 4.8 3.8 2.2 5 1.3 5.8 -6.9 5.8 -5.3 0 -6.2 -0.3 -8.8 -3.1z"/>
  <path d="M64 199 l0 -11 7.5 0 c4.8 0 8.7 0.6 10.5 1.5 3.4 1.8 4.9 5.9 3.1 8.7 -0.9 1.4 -0.9 2.4 0 4 0.6 1.1 1.5 3.4 1.9 4.9 l0.9 2.9 -4.9 0 c-4.7 0 -5 -0.2 -5.8 -3.2 -1.2 -4.6 -3.2 -4.8 -3.2 -0.4 l0 3.6 -5 0 -5 0 0 -11z"/>
  <path d="M92 199 l0 -11 7.9 0 c7.1 0 8.3 0.3 11 2.6 3.9 3.2 4.1 7.1 0.6 10.4 -1.9 1.8 -3.1 2.2 -6 1.7 l-3.5 -0.6 0 4 0 3.9 -5 0 -5 0 0 -11z"/>
  <path d="M145 199 l0 -11 7.8 0 c9.5 0 14.2 2.3 14.2 6.8 0 1.5 -0.4 3.2 -1 3.8 -0.7 0.7 -0.3 2.3 1 4.9 3 5.9 2.7 6.5 -2.9 6.5 -4.6 0 -4.9 -0.2 -5.4 -3 -0.4 -1.6 -1.1 -3 -1.7 -3 -0.5 0 -1 1.4 -1 3 0 3 -0.1 3 -5.5 3 l-5.5 0 0 -11z"/>
  <path d="M172 209.2 c0 -0.8 5 -15.9 6.5 -19.4 0.6 -1.5 2 -1.8 7.4 -1.8 l6.6 0.1 3.7 10.9 3.7 11 -4.9 0 c-3.3 0 -5 -0.5 -5.4 -1.5 -0.3 -0.9 -1.8 -1.5 -4 -1.5 -2.1 0 -3.6 0.6 -4 1.5 -0.6 1.6 -9.6 2.2 -9.6 0.7z"/>
  <path d="M205 204 c0 -5.8 -0.1 -6 -2.6 -6 -2.4 0 -2.5 -0.2 -2.2 -4.7 l0.3 -4.8 9.8 -0.3 9.7 -0.3 0 5.1 c0 4.7 -0.2 5 -2.5 5 -2.4 0 -2.5 0.3 -2.5 6 l0 6 -5 0 -5 0 0 -6z"/>
  <path d="M224 199.5 l0 -10.5 5 0 5 0 0 10.5 0 10.5 -5 0 -5 0 0 -10.5z"/>
  <path d="M267 199.5 l0 -10.5 3.9 0 c3.3 0 4.2 0.5 6 3.3 l2.1 3.2 0 -3.7 0 -3.8 5 0 5 0 0 11 0 11 -3.7 0 c-2.8 0 -4.3 -0.6 -6 -2.7 l-2.2 -2.8 -0.1 2.8 c0 2.6 -0.2 2.7 -5 2.7 l-5 0 0 -10.5z"/>
  <path d="M274 180.4 c-33.8 -2.3 -35 -2.4 -35 -4 0 -0.8 -1 -1.4 -2.5 -1.4 l-2.6 0 0.6 -9.2 c0.3 -5.1 1 -15.1 1.5 -22.3 0.5 -7.1 1.2 -18.2 1.5 -24.5 0.9 -16.1 0.8 -15.8 5.8 -15.4 2.3 0.2 14.2 0.9 26.5 1.5 17.4 0.9 22.2 1.5 22.2 2.5 0 0.8 1.1 1.4 2.5 1.4 2.8 0 3 1.5 1.8 13 l-0.6 6.2 -7.6 -0.6 c-4.2 -0.4 -9.7 -0.9 -12.3 -1.2 l-4.8 -0.6 0 3.1 c0 2.9 0.1 3 6 3.7 3.3 0.4 6 1.1 6 1.6 0 0.5 0.9 0.7 1.9 0.3 2.9 -0.9 3.3 0.7 2.5 10.5 l-0.7 9.1 -8.8 -0.7 -8.9 -0.7 0 3.2 c0 3.1 0 3.1 5.4 3.1 8.5 0 14.6 1.1 14.6 2.6 0 0.8 1.1 1.4 2.6 1.4 l2.5 0 -0.5 8.3 c-0.4 5.3 -0.2 7.3 0.3 5.7 0.8 -2.3 0.9 -2.2 1 1.3 0.1 2 0 3.6 -0.1 3.6 -0.2 -0.1 -9.5 -0.8 -20.8 -1.5z m11.4 -7 c0.3 -0.9 0.6 -3.1 0.6 -5 0 -2.8 -0.4 -3.5 -2.7 -4 -1.6 -0.4 -3 -1.1 -3.3 -1.5 -0.3 -0.4 -5 -0.9 -10.5 -1.1 l-10 -0.3 -0.3 -2.8 c-0.2 -1.8 0.2 -2.9 1.2 -3.3 1.1 -0.4 1.6 -1.9 1.6 -4.4 l0 -3.7 6.2 -0.7 c4.2 -0.5 6.4 -0.4 6.6 0.3 0.7 2.1 2 1.1 2.7 -1.9 0.4 -1.6 1.1 -3 1.6 -3 0.5 0 0.9 -1.3 0.9 -3 0 -2.6 -0.4 -3 -3.6 -3.6 -2 -0.4 -5.8 -0.4 -8.4 -0.1 -3.6 0.4 -5.2 0.2 -6 -0.9 -0.9 -1 -0.9 -1.4 -0.1 -1.4 0.7 0 1.1 -2.2 1.1 -6 0 -5.7 0.1 -6 2.5 -6 1.4 0 2.5 -0.5 2.5 -1.1 0 -0.9 2.6 -1 9.4 -0.5 l9.4 0.6 1.1 -3.1 c0.6 -1.8 1.1 -4.2 1.1 -5.4 0 -2.2 -0.4 -2.3 -13.2 -3 -7.3 -0.3 -17.8 -0.5 -23.3 -0.3 l-10 0.3 -0.3 3.3 c-0.2 1.7 -0.8 3.2 -1.4 3.2 -0.7 0 -0.9 4.3 -0.6 13 0.2 8.4 0 13.1 -0.7 13.3 -1 0.4 -2.2 13.3 -2.4 25.5 l-0.1 6.2 5.5 0 c3.2 0 5.5 -0.4 5.5 -1.1 0 -1.2 13.8 -0.2 15.5 1.1 1.7 1.3 4.7 1.8 13.1 1.9 6.6 0.1 8.3 -0.2 8.8 -1.5z"/>
  <path d="M113 178.1 c-6.7 -2.1 -14.1 -6.3 -18 -10.3 -3.3 -3.2 -3.5 -3.2 -2.1 0.5 1.2 3.2 -0.3 3.7 -11.4 3.7 -4.4 0.1 -10 0.5 -12.5 1 -2.8 0.5 -4.6 0.5 -4.9 -0.1 -0.1 -0.6 -1.1 -1.8 -2.1 -2.7 -0.9 -0.9 -2.4 -3.4 -3.1 -5.6 l-1.4 -3.9 -8.5 0.7 c-4.8 0.4 -8.7 1.2 -9.2 1.9 -0.4 0.6 -1 2.8 -1.3 4.7 -0.3 1.9 -0.9 4 -1.3 4.7 -0.4 0.6 -6.2 1.3 -14.7 1.7 -12.8 0.6 -14.2 0.5 -16.4 -1.2 l-2.3 -1.9 8.7 -32.4 c4.7 -17.8 9.1 -34 9.7 -36 l1 -3.7 14.7 -0.6 c8 -0.4 17.1 -0.9 20.2 -1.2 5.1 -0.5 5.7 -0.4 6.2 1.5 0.3 1.2 1.3 2.1 2.5 2.1 1.6 0 3 3.2 8.7 19 l6.9 19 1.7 -6.9 c2.3 -9 4.8 -13.7 10.1 -19.1 8.9 -8.9 22.9 -12.1 36.8 -8.5 3.6 1 8.1 1.8 10 2 2.1 0.1 3.8 0.9 4.5 2.1 2.9 5.3 3.9 3.5 5 -8.4 0.4 -4.5 1.1 -8.4 1.5 -8.7 0.4 -0.3 6.8 0.2 14.1 1.1 9.3 1.1 13.6 2 14.2 3 0.4 0.8 1.4 1.4 2 1.4 0.7 0 2.8 2.5 4.6 5.5 1.8 3 3.7 5.5 4.1 5.5 0.5 0 3.1 -2.5 5.8 -5.6 l4.9 -5.7 11.4 1.2 c14.9 1.6 16.9 2 16.9 3.7 0 0.8 0.9 1.4 2 1.4 2.5 0 2.5 0.5 0.5 17.5 -0.9 7.1 -2.4 20.7 -3.5 30 -3 25.9 -2.4 23.8 -7.3 23.1 -2.3 -0.3 -8.6 -1 -13.9 -1.7 -7.1 -0.8 -9.8 -1.5 -9.8 -2.5 0 -0.8 -1 -1.4 -2.5 -1.4 -2.8 0 -2.9 -0.4 -1.6 -8.1 0.6 -3 1.3 -8.3 1.6 -11.9 l0.7 -6.5 -3.2 3 c-3.1 3 -3.2 3 -4.6 1 -0.8 -1.1 -2.1 -1.9 -2.8 -1.8 -0.6 0.2 -2.2 -1.4 -3.4 -3.5 l-2.3 -3.7 0.2 4.5 c0.2 2.5 -0.2 5.6 -0.8 7 -0.6 1.4 -1.4 6.5 -1.8 11.3 l-0.7 8.8 -9.7 -0.6 c-5.3 -0.3 -11.5 -1.1 -13.9 -1.7 -5.1 -1.3 -6 -0.7 -3.8 2.4 0.9 1.2 1.6 2.6 1.6 3.1 0 1.2 -9.8 5.3 -16.8 7.2 -7.7 1.9 -14.3 1.8 -21.2 -0.4z m12.4 -6.1 c1.7 -0.6 2.6 -0.6 2.9 0.3 0.6 2 8 -0.9 9.4 -3.8 1.6 -3.5 0.6 -10 -2.4 -16.7 l-2.6 -5.6 -9.3 0.5 c-6.2 0.4 -9.4 0.2 -9.4 -0.4 0 -0.6 -1.1 -1.4 -2.5 -1.7 -1.4 -0.4 -2.5 -1.4 -2.6 -2.4 -0.4 -6.1 1.2 -9.2 6.3 -11.8 3 -1.5 7.8 -1.9 7.8 -0.5 0 0.4 2.3 0.4 5.2 0 5.2 -0.8 7.7 -2.7 5.5 -4.1 -0.9 -0.6 -0.6 -1.3 1 -2.6 2.1 -1.6 6.2 -9.4 6.3 -11.8 0 -0.6 -1.2 -1.7 -2.7 -2.3 -4.4 -1.8 -17.7 -4 -18.8 -3.2 -0.5 0.4 -4.4 1.3 -8.5 2 -4.1 0.7 -8.5 2 -9.8 2.8 -4.1 2.5 -7.2 5.6 -7.2 7 0 0.8 -1.1 3.5 -2.4 6.1 -1.3 2.6 -2.6 6.4 -3 8.5 -0.4 2.1 -1.1 3.5 -1.7 3.2 -1.2 -0.8 -1.2 10 0.1 14.6 0.5 1.9 2 4.6 3.2 5.9 2.7 2.9 6.2 7.9 7 10.1 0.4 0.9 2.8 2.7 5.5 4 5.3 2.6 18 3.7 22.7 1.9z m-95.6 -9 c0.6 -2.2 1.2 -4.9 1.2 -6 0 -1.1 0.6 -2 1.3 -2.1 0.6 0 3.9 -0.3 7.2 -0.5 3.3 -0.3 8.8 -0.2 12.2 0.1 l6.3 0.7 1.7 4.9 c1.7 4.8 1.8 4.9 6 4.9 2.3 0 4.3 0.4 4.5 0.9 0.2 0.5 3.6 0.7 7.6 0.4 6.2 -0.5 7.2 -0.8 7.2 -2.4 0 -1.1 -0.6 -1.9 -1.4 -1.9 -0.9 0 -1.2 -0.7 -0.9 -2 0.4 -1.5 0 -2 -1.3 -2.1 -1.1 0 -1.4 -0.3 -0.6 -0.6 1.8 -0.7 1.5 -3.3 -0.5 -3.3 -1.2 0 -1.4 -0.3 -0.7 -0.8 1.7 -1 -2.5 -13.2 -4.5 -13.3 -1.1 0 -1.2 -0.2 -0.3 -0.6 1 -0.4 0.9 -0.8 -0.5 -1.9 -1 -0.7 -1.3 -1.4 -0.6 -1.4 1.8 0 0.3 -4 -1.6 -4 -1.2 0 -1.3 -0.2 -0.3 -0.8 1.6 -1 0.5 -4.2 -1.4 -4.2 -0.8 0 -1.4 -0.4 -1.4 -1 0 -0.5 0.4 -1 0.9 -1 0.6 0 0.3 -2 -0.6 -4.5 -0.8 -2.5 -2.1 -4.5 -2.9 -4.5 -1.7 0 -1.9 -1.7 -0.3 -2.2 0.9 -0.3 0.8 -1.1 -0.1 -2.8 -0.7 -1.4 -1.6 -2.7 -2 -3 -0.4 -0.3 -1.5 -1.9 -2.4 -3.7 l-1.6 -3.2 -16.6 0.3 c-17.1 0.4 -18.8 0.9 -19.7 4.9 -0.2 1.2 -3.3 12.6 -6.7 25.2 -4.1 15.2 -6.2 24.7 -6.1 27.9 0.1 2.7 -0.4 5.5 -1 6.2 -1 1.2 0.5 1.4 8.7 1.4 l9.9 0 1.3 -4z m188.3 1.7 c2.1 -1.6 3.6 -7.7 1.8 -7.7 -1.5 0 -0.6 -8 1.1 -9 0.7 -0.4 1.2 -3.8 1.3 -8.4 0.1 -4.2 0.5 -7.6 0.8 -7.6 1.2 0 1.6 -8.4 0.5 -10.2 -0.7 -1.2 -0.7 -3.5 0.2 -7.6 1.6 -7.8 1.5 -11.2 -0.2 -11.2 -0.8 0 -1.6 -0.6 -1.9 -1.2 -0.3 -1 -0.9 -1 -2.9 0 -2.2 1.2 -3 1.2 -5.6 -0.2 -1.7 -0.9 -4.9 -1.6 -7.1 -1.6 -3.6 0 -4.2 0.4 -5.6 3.4 -1.8 3.7 -7.7 8.9 -11.2 9.8 -2.2 0.6 -3.6 -0.4 -3.9 -2.7 0 -0.5 -0.2 -1.5 -0.2 -2.1 -0.1 -0.7 -1.2 -1.4 -2.4 -1.8 -1.9 -0.5 -2 -0.8 -0.8 -1.5 1.2 -0.8 1.1 -1.1 -0.5 -1.7 -1.1 -0.5 -2.8 -1.8 -3.8 -3.1 -1 -1.3 -2.5 -2.3 -3.3 -2.3 -0.8 0 -2.7 -0.6 -4.2 -1.4 -1.5 -0.7 -5.9 -1.6 -9.8 -2 l-7.1 -0.7 -0.7 8.8 c-0.4 4.8 -1.6 15.6 -2.6 23.8 -3.3 26.7 -3.4 28.7 -1.3 31.1 1.4 1.6 2.6 2 5.2 1.6 1.9 -0.3 3.6 0 4 0.7 0.5 0.8 2.2 0.8 6.1 0.1 2.9 -0.6 5.5 -1.2 5.8 -1.4 0.2 -0.3 0.6 -2.3 0.9 -4.6 0.4 -3 0.2 -4.5 -0.8 -5.1 -1.2 -0.8 -1.1 -1.2 0.3 -2.3 2.1 -1.6 3.9 -17.6 1.9 -17.6 -0.6 0 -1.1 -0.4 -1.1 -1 0 -0.5 0.6 -1 1.4 -1 0.8 0 1.6 -1 1.8 -2.2 0.4 -2.2 0.5 -2.2 1.8 0.5 0.7 1.5 1.9 2.7 2.6 2.7 0.7 0 2.5 2 4.1 4.5 3.1 5 3.5 5.2 5.3 3 0.7 -0.8 1.7 -1.5 2.3 -1.5 0.6 0 2.8 -1.7 4.9 -3.7 2.1 -2 4.1 -3.4 4.4 -3 0.4 0.4 0.3 4.1 -0.2 8.2 -0.5 4.1 -0.6 7.5 -0.2 7.5 0.5 0 0.4 0.8 -0.2 1.8 -1.5 2.7 -3.1 17.6 -1.9 18.1 0.6 0.1 1.5 0.8 2.1 1.5 1.5 1.6 16.8 1.9 18.9 0.3z m-75.1 -25.7 c-0.1 -1.2 -0.3 -1.1 -1.1 0.3 -0.5 0.9 -1.8 1.7 -2.7 1.8 -1.4 0 -1.3 0.2 0.3 0.8 2.1 0.9 3.5 -0.3 3.5 -2.9z"/>
  <path d="M37 142.6 c0 -0.8 -0.6 -1.7 -1.2 -1.9 -0.9 -0.4 -0.7 -0.6 0.3 -0.6 1.9 -0.1 4 -6.5 4.4 -13.1 0.1 -2.5 0.5 -6.2 1 -8.2 0.8 -4.3 3.5 -6.1 3.5 -2.3 0 1.3 0.5 2.7 1 3 0.6 0.3 1 1.8 1 3.2 0 1.7 0.7 2.7 2.1 3 1.5 0.4 1.7 0.8 0.8 1.3 -1.2 0.8 -1 1.9 2.1 9.5 1.7 4.1 1.8 6.4 0.3 6.9 -0.8 0.3 -4.6 0.6 -8.4 0.6 -5.3 0 -6.9 -0.3 -6.9 -1.4z"/>
 </g>
 <g fill="#a34644">
  <path d="M224.4 199.5 c0 -6 0.1 -8.4 0.3 -5.2 0.2 3.2 0.2 8.1 0 11 -0.2 2.9 -0.3 0.3 -0.3 -5.8z"/>
  <path d="M267.4 199.5 c0 -6 0.1 -8.4 0.3 -5.2 0.2 3.2 0.2 8.1 0 11 -0.2 2.9 -0.3 0.3 -0.3 -5.8z"/>
  <path d="M113.2 196 c0 -1.9 0.2 -2.7 0.5 -1.7 0.2 0.9 0.2 2.5 0 3.5 -0.3 0.9 -0.5 0.1 -0.5 -1.8z"/>
  <path d="M110 172.9 c-1.1 -0.7 0.5 -0.8 5.5 -0.4 4.1 0.4 8.1 0.2 9.8 -0.4 2.2 -0.9 2.7 -0.8 2.7 0.4 0 1.2 -1.6 1.5 -8.2 1.5 -4.6 0 -9 -0.5 -9.8 -1.1z"/>
  <path d="M250.3 173.3 c-1.3 -0.2 -2.3 -0.9 -2.3 -1.4 0 -1.2 14 -0.1 15.5 1.2 0.9 0.9 -8.9 1 -13.2 0.2z"/>
  <path d="M137 169.1 c0 -0.6 0.4 -1.3 1 -1.6 0.5 -0.3 0.7 -2.7 0.5 -5.3 l-0.5 -4.7 2.5 5 c2.3 4.6 2.3 5.1 0.8 6.3 -2 1.4 -4.3 1.6 -4.3 0.3z"/>
  <path d="M7.6 166.3 c0.4 -1.6 1.3 -4.1 2 -5.8 l1.2 -3 0.1 3.6 c0.1 1.9 -0.4 4 -1.1 4.7 -0.9 0.9 1 1.2 8.8 1.2 l9.9 0 1.3 -4 c0.6 -2.2 1.2 -4.8 1.2 -5.9 0 -2.2 2.2 -2.7 13.5 -3 10.6 -0.3 8.9 1 -2.2 1.8 l-8.8 0.6 -1.4 5.6 -1.4 5.7 -6 0.6 c-3.3 0.3 -8.6 0.6 -11.9 0.6 l-5.8 0 0.6 -2.7z"/>
  <path d="M208.8 167.3 c-2.7 -0.2 -4.8 -0.8 -4.8 -1.3 0 -0.5 2.8 -0.7 6.4 -0.3 4.2 0.4 6.6 0.2 7 -0.6 1.1 -1.8 2.6 -1.3 2.6 0.9 0 2.1 -0.1 2.1 -11.2 1.3z"/>
  <path d="M62 166 c0 -0.5 1.8 -1 4 -1 2.2 0 4 0.5 4 1 0 0.6 -1.8 1 -4 1 -2.2 0 -4 -0.4 -4 -1z"/>
  <path d="M94.3 163.7 c-4.3 -4.8 -7.5 -11 -3.7 -7.2 2.3 2.3 6.6 8.7 6.1 9.1 -0.2 0.2 -1.3 -0.6 -2.4 -1.9z"/>
  <path d="M196 164.5 c0 -1.7 0.2 -1.8 2.4 -0.9 2.3 0.9 2 2.4 -0.4 2.4 -1.1 0 -2 -0.7 -2 -1.5z"/>
  <path d="M282.3 164.3 c-3.3 -0.6 -2.8 -2.3 0.7 -2.3 2 0 3 0.5 3 1.5 0 0.8 -0.3 1.4 -0.7 1.4 -0.5 -0.1 -1.8 -0.4 -3 -0.6z"/>
  <path d="M161 161 c0 -0.5 1 -1 2.3 -1 1.2 0 3.2 -0.3 4.5 -0.6 1.6 -0.5 2.2 -0.2 2.2 1 0 1.2 -1 1.6 -4.5 1.6 -2.5 0 -4.5 -0.4 -4.5 -1z"/>
  <path d="M259.4 160.6 c-0.8 -2.1 -0.1 -4.9 1.3 -5.3 0.7 -0.3 1.1 0.9 1 3.1 -0.1 3.7 -1.3 4.8 -2.3 2.2z"/>
  <path d="M265.7 161.3 c1.8 -0.2 5 -0.2 7 0 2.1 0.2 0.7 0.4 -3.2 0.4 -3.8 0 -5.5 -0.2 -3.8 -0.4z"/>
  <path d="M152 160 c0 -0.5 1.4 -1 3 -1 1.7 0 3 0.5 3 1 0 0.6 -1.3 1 -3 1 -1.6 0 -3 -0.4 -3 -1z"/>
  <path d="M146 158 c0 -2.4 0.6 -2.5 2.6 -0.6 1.9 2 1.8 2.6 -0.6 2.6 -1.3 0 -2 -0.7 -2 -2z"/>
  <path d="M219.3 152.9 c0.3 -2.2 0.8 -4.3 1.1 -4.6 1.2 -1.3 1.6 0.6 1 4.6 -0.9 5.4 -2.8 5.4 -2.1 0z"/>
  <path d="M280 153.6 c0 -0.2 1.6 -0.6 3.5 -0.8 1.9 -0.2 3.5 0 3.5 0.4 0 0.4 -1.6 0.8 -3.5 0.8 -1.9 0 -3.5 -0.2 -3.5 -0.4z"/>
  <path d="M169.2 147.9 c0.2 -0.7 1 -1.5 1.7 -1.7 0.8 -0.3 1.2 0.1 0.9 0.9 -0.2 0.7 -1 1.5 -1.7 1.7 -0.8 0.3 -1.2 -0.1 -0.9 -0.9z"/>
  <path d="M269 147 c0 -0.5 1.4 -1 3 -1 1.7 0 3 0.5 3 1 0 0.6 -1.3 1 -3 1 -1.6 0 -3 -0.4 -3 -1z"/>
  <path d="M277.4 145.8 c0.3 -1.3 0.6 -2.6 0.6 -3 0 -0.5 0.5 -0.8 1 -0.8 0.6 0 1 1.4 1 3 0 2.1 -0.5 3 -1.6 3 -1.2 0 -1.5 -0.6 -1 -2.2z"/>
  <path d="M110.1 144.1 c-2 -1.3 -1.6 -7.9 0.6 -10.3 2.5 -2.7 6.7 -4.8 9.8 -4.8 3.8 0 3 1.8 -1.2 2.6 -5.3 0.9 -7.2 2.1 -8.4 5.1 -0.7 1.8 -0.5 3.3 0.5 5.4 1.5 3 1.1 3.5 -1.3 2z"/>
  <path d="M40.8 143.3 c2.3 -0.2 5.9 -0.2 8 0 2 0.2 0.1 0.4 -4.3 0.4 -4.4 0 -6.1 -0.2 -3.7 -0.4z"/>
  <path d="M47 140.3 c0.8 -0.3 1.8 -1.1 2.2 -1.7 0.5 -0.7 0.8 -0.4 0.8 0.7 0 1.1 -0.7 1.7 -2.2 1.6 -1.6 0 -1.8 -0.2 -0.8 -0.6z"/>
  <path d="M239 133.8 c0 -3.9 0.2 -6.9 0.4 -6.7 0.9 1 1.4 13.9 0.6 13.9 -0.6 0 -1 -3.2 -1 -7.2z"/>
  <path d="M182.8 136.3 c-3.8 -5.8 -5 -8.3 -3.9 -8.3 0.5 0 2 1.7 3.3 3.7 1.3 2 2.6 4.1 3 4.7 0.4 0.6 1.4 0.3 2.7 -0.9 3 -2.6 3.9 -1 1.1 2 -1.3 1.4 -2.7 2.5 -3 2.5 -0.4 0 -1.8 -1.7 -3.2 -3.7z"/>
  <path d="M86.7 135.3 c-1.1 -1.7 1 -8.9 4 -14.1 3.5 -6.1 4.2 -4.4 1.1 2.6 -1.5 3.1 -3 7.3 -3.5 9.2 -0.6 2.2 -1.2 3 -1.6 2.3z"/>
  <path d="M261.9 134.3 c-1.2 -1.5 -1.2 -1.6 0.4 -1 1 0.4 3.1 0.7 4.5 0.8 2.4 0 2.5 0.1 0.7 0.9 -3 1.3 -4.1 1.2 -5.6 -0.7z"/>
  <path d="M124.5 131 c-0.4 -0.6 0.6 -1 2.4 -1 1.6 0 3.6 -0.3 4.5 -0.6 1.1 -0.4 1.6 -0.1 1.6 1 0 1.2 -1 1.6 -3.9 1.6 -2.2 0 -4.3 -0.4 -4.6 -1z"/>
  <path d="M172.3 129.3 c-1.8 -0.7 -1.6 -2.3 0.2 -2.3 0.8 0 1.5 0.7 1.5 1.5 0 0.8 -0.1 1.5 -0.2 1.4 -0.2 0 -0.9 -0.3 -1.5 -0.6z"/>
  <path d="M278.3 126.3 c1.5 -0.2 3.7 -0.2 5 0 1.2 0.2 0 0.4 -2.8 0.4 -2.7 0 -3.8 -0.2 -2.2 -0.4z"/>
  <path d="M40.4 123.4 c0.4 -1.5 1 -3.9 1.3 -5.5 0.5 -2.9 3.3 -4.9 3.3 -2.4 0 0.7 -0.4 1.6 -0.9 1.9 -0.5 0.4 -1.2 2.4 -1.6 4.6 -0.4 2.2 -1.1 4 -1.7 4 -0.6 0 -0.7 -1.1 -0.4 -2.6z"/>
  <path d="M133.2 124.9 c0.2 -0.7 1 -1.5 1.7 -1.7 0.8 -0.3 1.2 0.1 0.9 0.9 -0.2 0.7 -1 1.5 -1.7 1.7 -0.8 0.3 -1.2 -0.1 -0.9 -0.9z"/>
  <path d="M147.3 122 c0 -2.5 0.2 -3.5 0.4 -2.2 0.2 1.2 0.2 3.2 0 4.5 -0.2 1.2 -0.4 0.2 -0.4 -2.3z"/>
  <path d="M223.5 121.6 c-0.5 -1.1 -0.3 -4.4 0.3 -7.6 1.7 -7.9 1.5 -10.8 -0.5 -11.3 -1.1 -0.3 -0.7 -0.5 1 -0.6 l2.9 -0.1 -0.7 6.8 c-0.4 3.7 -1.1 8.5 -1.5 10.7 -0.6 3.2 -0.9 3.6 -1.5 2.1z"/>
  <path d="M272.8 121.3 c-2.7 -0.2 -4.8 -0.9 -4.8 -1.5 0 -0.8 2.9 -0.9 9.4 -0.4 l9.4 0.6 1.1 -2.7 c1 -2.8 1 -2.8 0.8 0.7 l-0.2 3.5 -5.5 0.1 c-3 0 -7.6 -0.1 -10.2 -0.3z"/>
  <path d="M240.6 110.8 c0.4 -2.4 0.8 -4.4 0.9 -4.6 0.2 -0.2 6.1 0.1 13.1 0.5 l12.9 0.8 -12.5 0.5 -12.5 0.5 -0.3 3.3 c-0.2 1.7 -0.8 3.2 -1.3 3.2 -0.5 0 -0.7 -1.8 -0.3 -4.2z"/>
  <path d="M195 107.5 c5.8 -5.9 6 -6 6 -4.5 0 1.3 -9 10 -10.4 10 -0.6 0 1.4 -2.5 4.4 -5.5z"/>
  <path d="M107 107.7 c4.6 -1.8 13.4 -3.1 12.6 -1.9 -0.3 0.5 -2.5 1.2 -4.8 1.5 -2.4 0.4 -5.9 0.9 -7.8 1.2 l-3.5 0.5 3.5 -1.3z"/>
  <path d="M277.8 108.3 c1.2 -0.2 3 -0.2 4 0 0.9 0.3 -0.1 0.5 -2.3 0.4 -2.2 0 -3 -0.2 -1.7 -0.4z"/>
  <path d="M61.7 104.5 c-0.9 -2 -2.2 -3.3 -2.9 -3 -0.7 0.3 -2.6 0.1 -4.3 -0.5 -2.6 -0.8 -2.3 -0.9 2.4 -0.7 5.3 0.2 5.4 0.3 6.7 4 1.6 4.7 0.3 4.9 -1.9 0.2z"/>
  <path d="M177.7 100.5 c-1 -1.4 -2.6 -2.5 -3.5 -2.5 -0.9 -0.1 -2.8 -0.8 -4.2 -1.6 -1.4 -0.8 -1.7 -1.3 -0.7 -1 1 0.3 3.4 0.6 5.3 0.6 2.7 0 3.6 0.6 4.9 3 2.5 4.8 1.3 5.7 -1.8 1.5z"/>
  <path d="M213 101.4 l-2.5 -1.5 3.4 0.5 c1.8 0.3 3.8 0.6 4.3 0.6 0.5 0 0.6 0.5 0.3 1 -0.9 1.4 -2.6 1.2 -5.5 -0.6z"/>
 </g>
 <g fill="#eaeaea">
  <path d="M42.7 211.3 c-1.5 -1.4 -0.5 -1.9 2.9 -1.5 2.5 0.3 3.2 0.7 2.3 1.3 -1.7 1 -4.3 1.2 -5.2 0.2z"/>
  <path d="M128.3 210.3 c0.9 -0.2 2.5 -0.2 3.5 0 0.9 0.3 0.1 0.5 -1.8 0.5 -1.9 0 -2.7 -0.2 -1.7 -0.5z"/>
  <path d="M249.3 210.3 c0.9 -0.2 2.5 -0.2 3.5 0 0.9 0.3 0.1 0.5 -1.8 0.5 -1.9 0 -2.7 -0.2 -1.7 -0.5z"/>
  <path d="M145.2 199.3 l-0.2 -11.3 8.3 0.2 8.2 0.2 -7.7 0.3 -7.7 0.4 -0.4 10.7 -0.3 10.7 -0.2 -11.2z"/>
  <path d="M155.1 206.3 c-0.1 -3.5 0.2 -4.1 1.5 -3.6 0.9 0.3 1.1 0.8 0.6 1.2 -0.6 0.3 -1.2 2 -1.5 3.6 -0.3 2.4 -0.4 2.2 -0.6 -1.2z"/>
  <path d="M57.8 201 c0.3 -2.5 0.9 -3.9 1.6 -3.7 1 0.3 1 5.2 -0.1 7 -1.1 1.9 -1.8 0.3 -1.5 -3.3z"/>
  <path d="M184 201.1 c0 -2 1.3 -4.1 2.1 -3.5 1.5 0.9 1 4.4 -0.6 4.4 -0.8 0 -1.5 -0.4 -1.5 -0.9z"/>
  <path d="M45.5 200 c-0.4 -0.7 -0.3 -1.6 0.3 -2.2 1.4 -1.4 4.5 -0.2 4 1.5 -0.6 1.6 -3.4 2.1 -4.3 0.7z"/>
  <path d="M127 199.1 c0 -1.5 0.6 -2.1 2.1 -2.1 2.5 0 2.2 3.3 -0.4 3.8 -1.2 0.2 -1.7 -0.3 -1.7 -1.7z"/>
  <path d="M249 199.1 c0 -1.5 0.6 -2.1 2.1 -2.1 2.5 0 2.2 3.3 -0.4 3.8 -1.2 0.2 -1.7 -0.3 -1.7 -1.7z"/>
  <path d="M200.4 193 l0.1 -4.5 9.8 -0.3 9.7 -0.3 -0.2 5.3 -0.2 5.3 -0.3 -4.7 -0.4 -4.8 -8.9 0 -8.9 0 -0.4 4.3 -0.4 4.2 0.1 -4.5z"/>
  <path d="M73 195 c0 -2.3 2.5 -2.7 3.3 -0.6 0.7 1.6 -0.1 2.6 -2 2.6 -0.7 0 -1.3 -0.9 -1.3 -2z"/>
  <path d="M155 195 c0 -1.3 0.5 -2 1.3 -1.7 0.6 0.2 1.2 1 1.2 1.7 0 0.7 -0.6 1.5 -1.2 1.8 -0.8 0.2 -1.3 -0.5 -1.3 -1.8z"/>
  <path d="M132 189 l-2.5 -0.8 2.8 -0.1 c1.5 -0.1 2.7 0.4 2.7 0.9 0 0.6 -0.1 1 -0.2 0.9 -0.2 -0.1 -1.4 -0.5 -2.8 -0.9z"/>
  <path d="M185.5 189 l-7 -0.6 7.3 -0.2 c4.2 -0.1 7.2 0.2 7.2 0.8 0 0.6 -0.1 0.9 -0.2 0.8 -0.2 -0.1 -3.4 -0.4 -7.3 -0.8z"/>
  <path d="M45.3 188.3 c0.9 -0.2 2.5 -0.2 3.5 0 0.9 0.3 0.1 0.5 -1.8 0.5 -1.9 0 -2.7 -0.2 -1.7 -0.5z"/>
  <path d="M67.8 188.3 c2.3 -0.2 6.1 -0.2 8.5 0 2.3 0.2 0.4 0.4 -4.3 0.4 -4.7 0 -6.6 -0.2 -4.2 -0.4z"/>
  <path d="M95.8 188.3 c2.3 -0.2 6.1 -0.2 8.5 0 2.3 0.2 0.4 0.4 -4.3 0.4 -4.7 0 -6.6 -0.2 -4.2 -0.4z"/>
  <path d="M281.3 188.3 c1.5 -0.2 3.9 -0.2 5.5 0 1.5 0.2 0.2 0.4 -2.8 0.4 -3 0 -4.3 -0.2 -2.7 -0.4z"/>
  <path d="M293.3 181.3 c-0.7 -0.3 -1.3 -1.4 -1.3 -2.6 0 -1.7 0.2 -1.9 0.9 -0.8 0.7 1.1 1 0.9 1.3 -1 0.3 -2.1 0.4 -2 0.9 0.9 0.6 3.5 0.2 4.2 -1.8 3.5z"/>
  <path d="M281.8 180.3 c1.2 -0.2 3.2 -0.2 4.5 0 1.2 0.2 0.2 0.4 -2.3 0.4 -2.5 0 -3.5 -0.2 -2.2 -0.4z"/>
  <path d="M120.8 179.3 c1.7 -0.2 4.7 -0.2 6.5 0 1.7 0.2 0.3 0.4 -3.3 0.4 -3.6 0 -5 -0.2 -3.2 -0.4z"/>
  <path d="M265.8 179.3 c1.2 -0.2 3.2 -0.2 4.5 0 1.2 0.2 0.2 0.4 -2.3 0.4 -2.5 0 -3.5 -0.2 -2.2 -0.4z"/>
  <path d="M247.8 178.3 c1.2 -0.2 3 -0.2 4 0 0.9 0.3 -0.1 0.5 -2.3 0.4 -2.2 0 -3 -0.2 -1.7 -0.4z"/>
  <path d="M6.7 173.6 c-1.7 -1.3 -1.6 -1.4 0.3 -1.9 1.3 -0.3 2 0 2 0.8 0 1 1.9 1.5 6.8 1.8 l6.7 0.3 -7 0.2 c-4.5 0.1 -7.6 -0.3 -8.8 -1.2z"/>
  <path d="M64 173 c0 -0.5 -0.7 -1.6 -1.6 -2.4 -1.4 -1.5 -1.4 -1.6 0.1 -1.6 0.8 0 1.8 0.7 2.1 1.5 0.4 0.9 1.9 1.5 4.2 1.5 4.3 0 3.9 0.5 -1 1.3 -2.1 0.3 -3.8 0.2 -3.8 -0.3z"/>
  <path d="M293.3 166.5 c0 -2.2 0.2 -3 0.4 -1.7 0.2 1.2 0.2 3 0 4 -0.3 0.9 -0.5 -0.1 -0.4 -2.3z"/>
  <path d="M193 165.5 c0 -1.4 0.2 -2.5 0.4 -2.5 0.2 0 0.6 1.1 0.8 2.5 0.3 1.4 0.1 2.5 -0.3 2.5 -0.5 0 -0.9 -1.1 -0.9 -2.5z"/>
  <path d="M156.3 166.3 c0.9 -0.2 2.5 -0.2 3.5 0 0.9 0.3 0.1 0.5 -1.8 0.5 -1.9 0 -2.7 -0.2 -1.7 -0.5z"/>
  <path d="M41.8 161.3 c1.2 -0.2 3 -0.2 4 0 0.9 0.3 -0.1 0.5 -2.3 0.4 -2.2 0 -3 -0.2 -1.7 -0.4z"/>
  <path d="M140.7 150.4 c-1.9 -3.8 -3.2 -5.4 -4.2 -5 -0.8 0.3 -1.7 -0.3 -2 -1.5 -0.5 -1.4 -1.2 -1.8 -2.3 -1.3 -3.2 1.3 -10.6 2.4 -12.4 1.8 -2.6 -0.8 -2.3 -5 0.4 -6.5 1.3 -0.7 5.1 -1 10.1 -0.7 l8 0.5 2.7 -6.1 c1.5 -3.4 3.7 -8.3 4.9 -11 1.2 -2.7 2.3 -4.7 2.5 -4.5 0.4 0.5 -4 38.9 -4.6 39.4 -0.2 0.3 -1.6 -2.1 -3.1 -5.1z"/>
  <path d="M235.3 152.5 c0 -2.2 0.2 -3 0.4 -1.7 0.2 1.2 0.2 3 0 4 -0.3 0.9 -0.5 -0.1 -0.4 -2.3z"/>
  <path d="M179.1 144 c0 -3.3 0.1 -3.4 1 -1.1 0.6 1.6 0.6 2.8 -0.1 3.5 -0.7 0.7 -1 -0.1 -0.9 -2.4z"/>
  <path d="M287.2 140.3 c-0.2 -3.7 -0.5 -4.3 -2.4 -4.3 -2.1 -0.1 -2.2 -0.1 -0.5 -1.1 2.8 -1.6 3.9 0.1 3.4 5.2 l-0.4 4.4 -0.1 -4.2z"/>
  <path d="M46.1 139.3 c0 -1 0.4 -2.7 0.9 -3.8 0.7 -1.9 0.9 -1.8 1.9 0.8 1.5 3.9 1.4 4.7 -0.9 4.7 -1.3 0 -2 -0.6 -1.9 -1.7z"/>
  <path d="M82.7 140.3 c-0.2 -0.5 0 -2.1 0.4 -3.8 0.7 -2.9 0.7 -2.9 0.8 0.8 0.1 3.5 -0.3 4.6 -1.2 3z"/>
  <path d="M289.8 127.3 c1.2 -0.2 3.2 -0.2 4.5 0 1.2 0.2 0.2 0.4 -2.3 0.4 -2.5 0 -3.5 -0.2 -2.2 -0.4z"/>
  <path d="M237.3 122.5 c0 -2.7 0.2 -3.8 0.4 -2.2 0.2 1.5 0.2 3.7 0 5 -0.2 1.2 -0.4 0 -0.4 -2.8z"/>
  <path d="M142.7 109 c-2.6 -1.6 -2.7 -1.8 -0.8 -2.3 1.1 -0.3 2.5 0.1 3.2 0.9 1.9 2.3 0.5 3.2 -2.4 1.4z"/>
  <path d="M41.3 98.3 c2 -0.2 5.4 -0.2 7.5 0 2 0.2 0.3 0.4 -3.8 0.4 -4.1 0 -5.8 -0.2 -3.7 -0.4z"/>
  <path d="M59.3 97.3 c0.9 -0.2 2.5 -0.2 3.5 0 0.9 0.3 0.1 0.5 -1.8 0.5 -1.9 0 -2.7 -0.2 -1.7 -0.5z"/>
 </g>
</svg>